<svg xmlns="http://www.w3.org/2000/svg" data-name="Layer 2" viewBox="0 0 64 64"><path d="M12.9,25H51.1a6.59,6.59,0,0,1,1.09.1,5.93,5.93,0,0,0-3.53-4.77,5,5,0,0,0-4.82-5A5.44,5.44,0,0,0,35,13.24a6.43,6.43,0,0,0-4.21-.35A5.87,5.87,0,0,0,25.74,10a6,6,0,0,0-5.81,4.77,5.5,5.5,0,0,0-3.63,4.34,5.89,5.89,0,0,0-4.54,5.76c0,.08,0,.15,0,.23A7,7,0,0,1,12.9,25ZM45,21a1,1,0,1,1-1,1A1,1,0,0,1,45,21Zm-6-6a1,1,0,1,1-1,1A1,1,0,0,1,39,15Zm-2,5a1,1,0,1,1-1,1A1,1,0,0,1,37,20Zm-6-5a1,1,0,1,1-1,1A1,1,0,0,1,31,15Zm-2,5a1,1,0,1,1-1,1A1,1,0,0,1,29,20Zm-6-4a1,1,0,1,1-1,1A1,1,0,0,1,23,16Zm-4,5a1,1,0,1,1-1,1A1,1,0,0,1,19,21Z"/><rect width="58" height="6" x="3" y="46" rx="1"/><path d="M56,31.07A5,5,0,0,0,51.1,27H12.9A5,5,0,0,0,8,31.07L5.55,44h52.9Zm-22.1-1.51c.74-.11,3.62,3.84.68,4.3S33.18,29.68,33.91,29.56Zm-3.82,0c.73.12,2.26,4.76-.68,4.3S29.35,29.45,30.09,29.56Zm-4.41,3.19c.63-.08,3,3.33.47,3.65S25.06,32.83,25.68,32.75Zm8,9.25A6.55,6.55,0,0,1,32,41.52a5.85,5.85,0,0,1-1.68.48c-2,0-3.36-1.15-3.36-2.93a5,5,0,0,1,10.08,0C37,40.85,35.72,42,33.68,42Zm4.17-5.6c-2.49-.32-.16-3.73.47-3.65S40.35,36.72,37.85,36.4Z"/></svg>